<svg width="302" height="388" viewBox="0 0 302 388" fill="none" xmlns="http://www.w3.org/2000/svg">
<g clip-path="url(#clip0)">
<path d="M284.483 365.763L226.818 321.888L150.14 325.573L73.463 321.888L15.7975 365.763L-0.5 390H139.901H160.376H300.777L284.483 365.763Z" fill="#8B1FFF"/>
<path d="M227.647 321.11L212.179 307.746L202.469 312.712L150.14 328.691L97.8111 312.712L88.1015 307.746L72.6334 321.11C72.6334 321.11 98.7702 370.121 149.959 370.362H150.329C201.51 370.121 227.647 321.11 227.647 321.11Z" fill="#641DBF"/>
<path d="M228.914 320.525L213.194 307.731L203.325 312.486L150.14 327.798L96.9557 312.501L87.0868 307.746L71.3669 320.525C71.3669 320.525 97.9259 367.47 149.959 367.689H150.329C202.355 367.47 228.914 320.525 228.914 320.525Z" fill="#8B1FFF"/>
<path d="M214.723 315.881C177.877 275.402 204.025 212.193 204.025 212.193L151.329 208.775V208.62L150.14 208.69L148.952 208.612V208.768L96.2559 212.186C96.2559 212.186 122.404 275.406 85.5575 315.874C85.5575 315.874 106.565 351.817 148.952 353.128V353.168C149.352 353.168 149.744 353.168 150.14 353.168C150.537 353.168 150.929 353.168 151.329 353.168V353.128C193.715 351.824 214.723 315.881 214.723 315.881Z" fill="#EFCAB6"/>
<path d="M195.608 248.358C196.639 238.007 198.777 227.796 201.984 217.9C202.01 216.982 202.029 216.048 202.029 215.137C202.029 214.105 202.011 213.076 201.977 212.049L151.329 208.764V208.609L150.14 208.69L148.952 208.612V208.768L98.2962 212.049C98.2641 213.074 98.2469 214.103 98.2444 215.137C98.2444 216.063 98.2629 216.989 98.2888 217.9C101.495 227.796 103.632 238.007 104.662 248.358C113.494 269.629 130.543 284.042 150.129 284.042C169.715 284.042 186.776 269.629 195.608 248.358Z" fill="#D6A999"/>
<g style="mix-blend-mode:multiply" opacity="0.5">
<path d="M198.348 231.235C198.582 230.176 198.822 229.153 199.066 228.165C199.754 222.735 200.798 217.357 202.192 212.064L151.329 208.764V208.609L150.14 208.69L148.952 208.612V208.768L98.0889 212.067C99.482 217.361 100.527 222.739 101.218 228.169C101.459 229.157 101.699 230.18 101.933 231.239C111.516 251.173 129.51 264.608 150.14 264.608C170.771 264.608 188.764 251.173 198.348 231.235Z" fill="#6B7477"/>
</g>
<path d="M79.5269 187.06C89.5989 186.101 96.4682 171.718 94.87 154.936C93.2717 138.153 83.8111 125.326 73.7392 126.285C63.6672 127.244 56.7978 141.627 58.3961 158.409C59.9943 175.192 69.4549 188.019 79.5269 187.06Z" fill="#EFCAB6"/>
<path d="M78.671 178.072C85.7644 177.397 90.6023 167.268 89.4767 155.449C88.3512 143.63 81.6885 134.597 74.5951 135.272C67.5018 135.948 62.6639 146.077 63.7894 157.896C64.915 169.714 71.5777 178.748 78.671 178.072Z" fill="#D6A999"/>
<path d="M241.895 158.426C243.493 141.643 236.624 127.26 226.552 126.301C216.48 125.342 207.019 138.169 205.421 154.952C203.823 171.735 210.692 186.117 220.764 187.076C230.836 188.036 240.297 175.208 241.895 158.426Z" fill="#EFCAB6"/>
<path d="M236.502 157.912C237.627 146.093 232.79 135.964 225.696 135.289C218.603 134.613 211.94 143.647 210.815 155.466C209.689 167.285 214.527 177.413 221.62 178.089C228.714 178.764 235.376 169.731 236.502 157.912Z" fill="#D6A999"/>
<path d="M220.663 107.557C220.929 105.053 221.063 102.536 221.063 100.018C221.063 60.9754 189.412 29.3246 150.37 29.3246C111.328 29.3246 79.6732 60.9754 79.6732 100.018L79.2177 161.29C79.2177 161.29 77.929 250.38 149.911 250.758H150.37H150.929C222.352 249.914 221.063 161.29 221.063 161.29L220.663 107.557Z" fill="#F9EAD9"/>
<path d="M221.063 161.29L220.663 107.557C220.929 105.053 221.063 102.536 221.063 100.018C221.074 89.9965 218.948 80.0882 214.828 70.9531C210.708 61.818 204.689 53.666 197.17 47.0405V107.542L211.242 139.812L215.645 149.692L176.536 215.019L168.563 208.609H131.717L123.744 215.019L84.6243 149.673L89.0384 139.812L103.11 107.561V47.4478C95.7242 54.0707 89.8189 62.1778 85.7802 71.2391C81.7415 80.3004 79.6605 90.1119 79.6731 100.032L79.2177 161.29C79.2177 161.29 77.9586 249.554 148.929 250.743C149.255 250.743 149.585 250.743 149.911 250.762H150.37C150.94 250.762 151.507 250.762 152.073 250.721C222.315 248.947 221.063 161.29 221.063 161.29Z" fill="#EFCAB6"/>
<path d="M151.47 348.095V348.136C151.022 348.136 150.581 348.136 150.14 348.136C149.7 348.136 149.259 348.136 148.811 348.136V348.095C126.222 347.473 109.046 338.967 97.2742 330.239C107.613 340.415 124.814 352.391 148.952 353.135V353.176C149.352 353.176 149.744 353.176 150.14 353.176C150.537 353.176 150.929 353.176 151.329 353.176V353.135C175.466 352.395 192.667 340.415 203.006 330.239C191.245 338.967 174.074 347.473 151.47 348.095Z" fill="#D6A999"/>
<path d="M149.418 12.6678C149.418 12.6678 174.27 -2.47804 194.111 26.7398C194.111 26.7398 171.411 4.46166 147.244 23.7069C123.078 42.9522 149.418 12.6678 149.418 12.6678Z" fill="#68605E"/>
<path d="M163.286 184.016H150.377H149.9H136.994L126.833 202.332L130.451 208.609L137.653 207.92L149.9 210.327V210.42L150.14 210.371L150.377 210.42V210.327L162.624 207.92L169.826 208.609L173.444 202.332L163.286 184.016Z" fill="#FCF6F0"/>
<path d="M165.83 103.039C161.453 105.469 156.025 106.906 150.14 106.906C144.256 106.906 138.827 105.469 134.45 103.039H124.159C125.948 113.523 136.894 121.592 150.14 121.592C163.386 121.592 174.333 113.523 176.121 103.039H165.83Z" fill="#EFCAB6"/>
<path d="M156.162 200.784L149.918 203.239L143.538 200.784L145.667 178.302H154.029L156.162 200.784Z" fill="#F9EAD9"/>
<path d="M150.363 178.302V203.187L150.5 203.239L156.739 200.784L154.61 178.302H150.363Z" fill="#EFCAB6"/>
<path d="M136.331 106.82C136.331 106.82 147.352 129.709 144.175 167.215L131.458 148.777L99.6849 139.319L98.2037 139.782H88.8569C88.8569 139.782 85.8944 115.923 96.2632 105.539C106.632 95.1554 136.331 106.82 136.331 106.82Z" fill="#D6A999"/>
<path d="M99.6812 139.33L107.487 141.656L112.168 137.131L104.962 125.895L88.8531 139.793H98.2073L99.6812 139.33Z" fill="#D6A999"/>
<path d="M144.237 141.311C142.408 119.463 136.331 106.82 136.331 106.82C136.331 106.82 135.379 106.45 133.761 105.895C133.598 108.35 132.473 118.33 124.874 123.14C116.182 128.65 128.477 132.89 128.477 132.89L137.179 128.595L144.237 141.311Z" fill="#B78D80"/>
<path d="M133.906 128.595H137.179C137.179 128.595 139.72 166.845 112.028 166.845C112.028 166.845 92.5823 164.289 99.685 139.345L133.906 128.595Z" fill="#EFCAB6"/>
<path d="M137.179 128.595H133.921L126.196 131.02C124.026 134.283 122.674 138.586 123.826 144.048C126.966 158.975 112.042 166.83 112.042 166.83C139.72 166.845 137.179 128.595 137.179 128.595Z" fill="#D6A999"/>
<path d="M133.906 128.595C133.906 128.595 135.228 146.422 120.648 149.84C106.206 153.228 99.6849 139.33 99.6849 139.33L133.906 128.595Z" fill="#F9EAD9"/>
<path d="M98.4259 139.727C98.4259 139.727 96.0152 122.537 111.094 117.808C125.755 113.208 133.906 128.595 133.906 128.595L98.4259 139.727Z" fill="#B78D80"/>
<path d="M98.4258 139.727C98.4258 139.727 96.4742 124.003 111.553 119.274C126.214 114.675 133.906 128.595 133.906 128.595L98.4258 139.727Z" fill="#D6A999"/>
<path d="M99.6849 139.33C99.6849 139.33 105.351 149.362 120.848 144.515C134.672 140.178 133.906 128.591 133.906 128.591L99.6849 139.33Z" fill="#FCF6F0"/>
<path d="M101.048 138.904L98.2074 139.793C98.2074 139.793 97.9445 127.225 111.768 122.888C123.496 119.207 129.999 123.151 133.906 128.595L101.048 138.904Z" fill="#68605E"/>
<path d="M120.437 143.157C129.511 140.31 135.543 133.783 133.91 128.579C132.277 123.374 123.598 121.464 114.524 124.311C105.45 127.158 99.4176 133.685 101.051 138.889C102.684 144.093 111.363 146.004 120.437 143.157Z" fill="#D8D0C7"/>
<path d="M120.437 143.157C128.43 140.649 133.586 134.397 131.953 129.193C130.32 123.989 122.517 121.803 114.524 124.311C106.531 126.818 101.375 133.071 103.008 138.275C104.641 143.479 112.444 145.665 120.437 143.157Z" fill="#E5E0DA"/>
<path d="M114.52 124.325C111.566 125.228 108.89 126.867 106.743 129.087C106.394 130.14 106.216 131.241 106.217 132.35C106.216 134.163 106.686 135.946 107.582 137.522C108.478 139.099 109.768 140.415 111.327 141.342C112.885 142.268 114.658 142.774 116.471 142.808C118.284 142.842 120.075 142.403 121.667 141.536C123.26 140.668 124.599 139.401 125.553 137.86C126.508 136.318 127.044 134.554 127.111 132.742C127.177 130.93 126.771 129.132 125.932 127.524C125.093 125.917 123.85 124.555 122.326 123.573C119.7 123.266 117.039 123.522 114.52 124.325V124.325Z" fill="#6A6B5F"/>
<path d="M116.657 135.69C118.501 135.69 119.997 134.195 119.997 132.35C119.997 130.505 118.501 129.01 116.657 129.01C114.812 129.01 113.316 130.505 113.316 132.35C113.316 134.195 114.812 135.69 116.657 135.69Z" fill="#51514F"/>
<path d="M116.656 131.372C117.959 131.372 119.015 130.316 119.015 129.013C119.015 127.711 117.959 126.654 116.656 126.654C115.354 126.654 114.297 127.711 114.297 129.013C114.297 130.316 115.354 131.372 116.656 131.372Z" fill="#E5E0DA"/>
<g style="mix-blend-mode:multiply">
<path d="M115.397 127.351C121.908 125.31 128.477 126.925 131.899 130.957C131.963 130.377 131.979 129.793 131.947 129.21C128.914 124.258 121.678 122.081 114.52 124.325C107.362 126.569 102.67 132.494 103.007 138.29C103.282 138.738 103.592 139.166 103.932 139.567C104.514 134.364 108.958 129.369 115.397 127.351Z" fill="#CECCC8"/>
</g>
<path d="M89.068 120.807H95.6374C95.6374 120.807 114.079 106.82 136.331 106.82L134.85 103.006C134.85 103.006 116.834 94.9518 100.511 101.525C100.518 101.521 89.7049 107.457 89.068 120.807Z" fill="#68605E"/>
<path d="M163.949 106.82C163.949 106.82 152.929 129.709 156.106 167.215L168.823 148.777L200.596 139.319L202.077 139.782H211.427C211.427 139.782 214.39 115.923 204.021 105.539C193.652 95.1554 163.949 106.82 163.949 106.82Z" fill="#D6A999"/>
<path d="M200.596 139.33L192.79 141.656L188.109 137.131L195.315 125.895L211.424 139.793H202.073L200.596 139.33Z" fill="#D6A999"/>
<path d="M156.043 141.311C157.872 119.463 163.949 106.82 163.949 106.82C163.949 106.82 164.901 106.45 166.519 105.895C166.682 108.35 167.808 118.33 175.407 123.14C184.098 128.65 171.804 132.89 171.804 132.89L163.101 128.595L156.043 141.311Z" fill="#B78D80"/>
<path d="M166.375 128.595H163.101C163.101 128.595 160.561 166.845 188.253 166.845C188.253 166.845 207.698 164.289 200.596 139.345L166.375 128.595Z" fill="#EFCAB6"/>
<path d="M163.101 128.595H166.36L174.085 131.02C176.255 134.283 177.607 138.586 176.455 144.048C173.329 158.975 188.253 166.845 188.253 166.845C160.561 166.845 163.101 128.595 163.101 128.595Z" fill="#D6A999"/>
<path d="M166.375 128.595C166.375 128.595 165.053 146.422 179.632 149.84C194.074 153.228 200.596 139.33 200.596 139.33L166.375 128.595Z" fill="#F9EAD9"/>
<path d="M201.855 139.727C201.855 139.727 204.266 122.537 189.186 117.808C174.526 113.208 166.375 128.595 166.375 128.595L201.855 139.727Z" fill="#B78D80"/>
<path d="M201.855 139.727C201.855 139.727 203.806 124.003 188.727 119.274C174.066 114.675 166.375 128.595 166.375 128.595L201.855 139.727Z" fill="#D6A999"/>
<path d="M200.596 139.33C200.596 139.33 194.93 149.362 179.432 144.515C165.608 140.178 166.375 128.591 166.375 128.591L200.596 139.33Z" fill="#FCF6F0"/>
<path d="M199.233 138.904L202.073 139.793C202.073 139.793 202.355 127.221 188.512 122.888C176.785 119.207 170.282 123.151 166.375 128.595L199.233 138.904Z" fill="#68605E"/>
<path d="M199.247 138.919C200.88 133.715 194.848 127.188 185.774 124.341C176.7 121.494 168.02 123.404 166.387 128.609C164.755 133.813 170.787 140.34 179.861 143.187C188.935 146.034 197.614 144.123 199.247 138.919Z" fill="#D8D0C7"/>
<path d="M197.29 138.305C198.923 133.1 193.767 126.848 185.774 124.341C177.781 121.833 169.978 124.019 168.345 129.223C166.712 134.427 171.868 140.679 179.861 143.187C187.853 145.695 195.657 143.509 197.29 138.305Z" fill="#E5E0DA"/>
<path d="M185.761 124.325C188.715 125.228 191.391 126.867 193.537 129.087C193.887 130.14 194.064 131.241 194.063 132.35C194.065 134.163 193.595 135.946 192.699 137.522C191.803 139.099 190.512 140.415 188.954 141.342C187.395 142.268 185.622 142.774 183.809 142.808C181.996 142.842 180.206 142.403 178.613 141.536C177.021 140.668 175.682 139.401 174.727 137.86C173.773 136.318 173.236 134.554 173.17 132.742C173.103 130.93 173.509 129.132 174.348 127.524C175.187 125.917 176.43 124.555 177.955 123.573C180.581 123.266 183.242 123.522 185.761 124.325V124.325Z" fill="#6A6B5F"/>
<path d="M183.621 135.69C185.465 135.69 186.961 134.195 186.961 132.35C186.961 130.505 185.465 129.01 183.621 129.01C181.776 129.01 180.28 130.505 180.28 132.35C180.28 134.195 181.776 135.69 183.621 135.69Z" fill="#51514F"/>
<path d="M183.62 131.372C184.923 131.372 185.979 130.316 185.979 129.013C185.979 127.711 184.923 126.654 183.62 126.654C182.318 126.654 181.261 127.711 181.261 129.013C181.261 130.316 182.318 131.372 183.62 131.372Z" fill="#E5E0DA"/>
<g style="mix-blend-mode:multiply">
<path d="M184.883 127.351C178.373 125.31 171.804 126.925 168.382 130.957C168.318 130.377 168.302 129.793 168.334 129.21C171.367 124.258 178.603 122.081 185.761 124.325C192.919 126.569 197.611 132.494 197.274 138.29C196.998 138.738 196.689 139.166 196.348 139.567C195.767 134.364 191.323 129.369 184.883 127.351Z" fill="#CECCC8"/>
</g>
<path d="M211.213 120.807H204.643C204.643 120.807 186.202 106.82 163.949 106.82L165.431 103.006C165.431 103.006 183.446 94.9518 199.77 101.525C199.762 101.521 210.576 107.457 211.213 120.807Z" fill="#68605E"/>
<path d="M134.606 208.609C136.353 215.367 142.645 220.37 150.14 220.37C157.635 220.37 163.927 215.367 165.694 208.609H134.606Z" fill="#D6A999"/>
<path d="M150.14 240.534C159.524 240.534 167.13 237.234 167.13 233.164C167.13 229.094 159.524 225.795 150.14 225.795C140.757 225.795 133.15 229.094 133.15 233.164C133.15 237.234 140.757 240.534 150.14 240.534Z" fill="#D6A999"/>
<path d="M150.14 238.393C159.963 238.393 167.927 235.435 167.927 231.787C167.927 228.138 159.963 225.18 150.14 225.18C140.317 225.18 132.354 228.138 132.354 231.787C132.354 235.435 140.317 238.393 150.14 238.393Z" fill="#F9EAD9"/>
<path d="M150.14 225.184C159.528 225.184 167.208 227.884 167.875 231.309C167.903 231.053 167.916 230.796 167.915 230.539C167.915 224.643 159.95 219.866 150.14 219.866C140.331 219.866 132.365 224.643 132.365 230.539C132.368 230.799 132.385 231.058 132.417 231.316C133.073 227.884 140.753 225.184 150.14 225.184Z" fill="#D6A999"/>
<path d="M163.72 179.565L170.996 194.637L168.863 182.694L163.72 179.565Z" fill="#EFCAB6"/>
<path d="M136.557 179.565L129.28 194.637L131.417 182.694L136.557 179.565Z" fill="#EFCAB6"/>
<path d="M150.14 166.822C151.065 166.822 151.814 160.758 151.814 153.276C151.814 145.795 151.065 139.73 150.14 139.73C149.216 139.73 148.466 145.795 148.466 153.276C148.466 160.758 149.216 166.822 150.14 166.822Z" fill="#FCF6F0"/>
<path d="M87.0535 68.4706C87.0535 68.4706 82.5023 43.2892 101.014 28.4136L102.833 32.6648C102.833 32.6648 106.165 9.9053 125.292 3.83584C144.419 -2.23361 154.117 8.69067 154.117 8.69067L147.748 13.2418C147.748 13.2418 175.059 1.39177 192.356 31.7576C192.356 31.7576 202.066 27.81 209.35 39.9489L205.706 40.5674L215.116 48.4588L212.079 53.6172C212.079 53.6172 217.238 67.8781 217.845 79.1097L211.472 76.3768L201.525 52.1212L190.168 42.5671C190.168 42.5671 171.718 52.0841 153.21 40.2489C134.702 28.4136 117.038 38.9343 117.038 38.9343L105.836 45.4444L87.0535 68.4706Z" fill="#68605E"/>
<path d="M150.14 99.3252C166.719 99.3252 180.158 91.0056 180.158 80.7428C180.158 70.48 166.719 62.1604 150.14 62.1604C133.562 62.1604 120.123 70.48 120.123 80.7428C120.123 91.0056 133.562 99.3252 150.14 99.3252Z" fill="#FCF6F0"/>
<path d="M150.27 29.3246C111.228 29.3246 79.5769 60.9754 79.5769 100.018L79.314 135.279H82.1172L90.2864 78.3098C90.2864 78.3098 91.1455 52.9433 112.642 42.1967L149.615 43.4558V43.4854H150.044H150.474V43.4558L187.446 42.1967C208.924 52.9358 209.802 78.3098 209.802 78.3098L217.949 135.279H220.752L220.548 107.557C220.814 105.053 220.948 102.536 220.948 100.018C220.967 60.9754 189.316 29.3246 150.27 29.3246Z" fill="#68605E"/>
<g style="mix-blend-mode:multiply" opacity="0.5">
<path d="M150.929 250.754C222.352 249.914 221.063 161.29 221.063 161.29L220.867 135.22L218.078 135.286V166.822L181.562 220.17L174.155 217.344V202.495L159.913 185.583H142.801L128.57 202.495V217.33L121.163 220.155L83.9022 166.83L82.4209 135.294L79.4251 135.146L79.2177 161.29C79.2177 161.29 77.929 250.38 149.911 250.758H150.37L150.929 250.754ZM166.212 208.609H170.367V219.559L164.523 223.388L159.557 218.13C159.557 218.13 165.368 214.371 166.212 208.609ZM138.19 223.388L132.365 219.559V208.609H136.52C137.365 214.371 143.186 218.13 143.186 218.13L138.19 223.388Z" fill="#6B7477"/>
</g>
<path d="M150.14 193.081C157.46 193.081 163.394 188.325 163.394 182.457C163.394 176.589 157.46 171.833 150.14 171.833C142.821 171.833 136.887 176.589 136.887 182.457C136.887 188.325 142.821 193.081 150.14 193.081Z" fill="#EFCAB6"/>
<path d="M150.14 176.739C143.475 176.739 137.987 179.902 137.042 184.016C137.987 189.141 143.482 193.081 150.14 193.081C156.799 193.081 162.294 189.141 163.238 184.016C162.294 179.902 156.806 176.739 150.14 176.739Z" fill="#D6A999"/>
<path d="M147.474 188.983C147.936 187.956 146.617 186.36 144.526 185.419C142.435 184.478 140.365 184.548 139.903 185.576C139.44 186.604 140.76 188.199 142.851 189.14C144.942 190.081 147.012 190.011 147.474 188.983Z" fill="#706663"/>
<path d="M157.421 189.152C159.512 188.211 160.832 186.615 160.37 185.588C159.907 184.56 157.837 184.49 155.747 185.431C153.656 186.372 152.336 187.967 152.798 188.995C153.261 190.023 155.331 190.093 157.421 189.152Z" fill="#706663"/>
<path d="M150.14 193.081C154.808 193.081 158.591 187.849 158.591 181.394C158.591 174.94 154.808 169.707 150.14 169.707C145.473 169.707 141.69 174.94 141.69 181.394C141.69 187.849 145.473 193.081 150.14 193.081Z" fill="#EFCAB6"/>
<path d="M141.701 181.709C141.823 188.004 145.552 193.081 150.14 193.081C154.728 193.081 158.458 188.019 158.58 181.709H141.701Z" fill="#D6A999"/>
<path d="M150.14 188.064C154.808 188.064 158.591 185.078 158.591 181.394C158.591 177.711 154.808 174.725 150.14 174.725C145.473 174.725 141.69 177.711 141.69 181.394C141.69 185.078 145.473 188.064 150.14 188.064Z" fill="#F9EAD9"/>
<path d="M150.14 182.376C152.801 182.376 154.958 181.014 154.958 179.335C154.958 177.656 152.801 176.295 150.14 176.295C147.48 176.295 145.323 177.656 145.323 179.335C145.323 181.014 147.48 182.376 150.14 182.376Z" fill="#FCF6F0"/>
<path d="M158.909 201.41C155.08 201.41 151.77 202.891 150.14 205.054C148.511 202.895 145.2 201.41 141.371 201.41C136.105 201.41 131.817 204.213 131.547 207.735H136.194C137.764 211.068 143.412 213.515 150.14 213.515C156.869 213.515 162.516 211.057 164.086 207.735H168.734C168.464 204.213 164.175 201.41 158.909 201.41Z" fill="#F9EAD9"/>
<path d="M168.734 208.609C168.464 205.391 164.175 202.836 158.909 202.836C155.08 202.836 151.77 204.187 150.14 206.168C148.511 204.195 145.2 202.836 141.371 202.836C136.105 202.836 131.817 205.391 131.547 208.609H168.734Z" fill="#E2A696"/>
<path d="M158.909 204.987C155.08 204.987 151.77 206.339 150.14 208.32C148.511 206.346 145.2 204.987 141.371 204.987C137.364 204.987 133.928 206.468 132.395 208.598H167.886C166.353 206.468 162.916 204.987 158.909 204.987Z" fill="#B77165"/>
<path d="M136.194 208.609C137.764 211.653 143.412 213.875 150.14 213.875C156.869 213.875 162.516 211.631 164.086 208.598L136.194 208.609Z" fill="#CC8172"/>
<path d="M161.935 208.609H138.346C140.938 210.42 145.252 211.608 150.14 211.608C155.028 211.608 159.339 210.42 161.935 208.609Z" fill="#E2A696"/>
<path d="M87.1869 150.31L90.5605 142.278L96.9817 141.797L87.1869 150.31Z" fill="#FCF6F0"/>
<path d="M103.888 166.689C103.888 166.689 118.33 177.932 133.117 158.016L141.949 170.237L129.906 181.961C129.906 181.961 114.809 193.204 100.033 170.881L103.888 166.689Z" fill="#FCF6F0"/>
<path d="M213.094 150.31L209.72 142.278L203.295 141.797L213.094 150.31Z" fill="#FCF6F0"/>
<path d="M196.393 166.689C196.393 166.689 181.95 177.932 167.164 158.016L158.332 170.237L170.374 181.961C170.374 181.961 185.472 193.204 200.248 170.881L196.393 166.689Z" fill="#FCF6F0"/>
<path d="M89.6975 67.9003C89.6975 67.9003 87.9089 46.6368 100.229 35.3126L102.614 40.6785C102.614 40.6785 112.368 3.71365 148.118 10.0757L134.606 26.5695C134.606 26.5695 149.907 14.2454 165.608 17.0302C181.31 19.8149 189.453 34.5164 189.453 34.5164L182.102 33.124L193.23 38.8898C193.23 38.8898 200.429 30.6726 209.35 39.9452L200.981 42.8633L207.935 50.614L197.17 47.0405L190.168 42.5671C190.168 42.5671 167.708 54.3209 150.025 43.7891L113.735 42.8633C113.735 42.8633 97.937 46.3998 91.8861 68.6965L89.6975 67.9003Z" fill="#494646"/>
<g style="mix-blend-mode:multiply" opacity="0.75">
<path d="M284.483 365.763L227.68 322.543C228.503 321.27 228.914 320.54 228.914 320.54L213.194 307.746L212.542 308.06L212.172 307.746L209.331 309.201C195.656 289.982 193.778 267.085 195.596 248.362C196.176 242.44 197.127 236.56 198.444 230.757L198.555 230.283C198.589 230.128 198.626 229.976 198.659 229.82C209.905 216.889 215.508 200.214 218.286 186.549C219.081 186.813 219.903 186.988 220.737 187.071C230.81 188.03 240.267 175.203 241.845 158.42C243.423 141.637 236.575 127.258 226.503 126.299C224.557 126.132 222.601 126.449 220.807 127.221L220.663 107.554C220.929 105.049 221.063 102.532 221.063 100.014C221.063 99.3807 221.063 98.7438 221.037 98.1142C221.037 97.9069 221.037 97.7032 221.015 97.4995C221.015 97.0737 220.985 96.6478 220.963 96.2219C220.963 95.9812 220.93 95.7405 220.915 95.4813C220.893 95.111 220.867 94.7111 220.837 94.3296L220.77 93.5668C220.737 93.1965 220.7 92.8262 220.663 92.4558L220.574 91.6819C220.533 91.3116 220.489 90.9598 220.441 90.6006C220.407 90.3413 220.37 90.0858 220.333 89.8303C220.282 89.46 220.226 89.1119 220.17 88.7527C220.13 88.5009 220.089 88.2491 220.045 88.0121C219.982 87.6418 219.919 87.2714 219.848 86.9233C219.804 86.6826 219.759 86.4382 219.711 86.1827C219.637 85.8124 219.559 85.4421 219.482 85.0718C219.43 84.8422 219.382 84.6126 219.33 84.3867C219.245 84.0164 219.152 83.6164 219.06 83.235C219.008 83.0239 218.96 82.8166 218.908 82.6092C218.804 82.1944 218.693 81.7834 218.582 81.3686C218.534 81.1983 218.489 81.0242 218.441 80.8539C218.303 80.3749 218.162 79.8972 218.019 79.4208L217.93 79.1171C217.897 79.006 217.863 78.8986 217.826 78.7912C217.156 67.6077 212.079 53.5728 212.079 53.5728L215.116 48.4143L206.265 41.008L209.35 39.9304C202.066 27.8063 192.356 31.7539 192.356 31.7539C189.149 26.1251 185.598 21.9553 181.943 18.8854C186.406 20.8111 190.519 23.4654 194.111 26.7398C174.992 -1.40411 151.222 11.6236 149.518 12.6086C148.385 12.9789 147.748 13.2418 147.748 13.2418L154.117 8.69067C154.117 8.69067 144.408 -2.23361 125.292 3.83584C106.177 9.9053 102.833 32.6648 102.833 32.6648L101.014 28.4136C83.1355 42.7892 86.7683 66.7523 87.0386 68.3817C82.117 78.2004 79.5616 89.0346 79.5768 100.018L79.3731 127.184C77.5958 126.43 75.6601 126.124 73.7369 126.295C63.6644 127.254 56.795 141.634 58.3948 158.416C59.9946 175.199 69.4487 188.041 79.5212 187.068C80.3551 186.984 81.1772 186.809 81.9727 186.545C84.7612 200.21 90.3604 216.889 101.599 229.824L101.699 230.265C101.74 230.431 101.777 230.594 101.814 230.761C103.131 236.561 104.083 242.439 104.662 248.358V248.358C106.465 267.081 104.603 289.978 90.9269 309.197L88.0866 307.742L87.7163 308.057L87.0683 307.742L71.3669 320.525C71.3669 320.525 71.778 321.266 72.6001 322.529L15.7975 365.763L-0.496338 390H300.781L284.483 365.763Z" fill="#F222FF"/>
</g>
</g>
<defs>
<clipPath id="clip0">
<rect width="302" height="388" fill="white"/>
</clipPath>
</defs>
</svg>
