<svg width="301" height="388" viewBox="0 0 301 388" fill="none" xmlns="http://www.w3.org/2000/svg">
<path d="M284.986 363.767L227.32 319.891L150.642 323.576L73.9637 319.891L16.2977 363.767L0 388.004H140.403H160.877H301.28L284.986 363.767Z" fill="#8B1FFF"/>
<path d="M228.146 319.114L212.681 305.749L202.972 310.715L150.638 326.694L98.3084 310.715L88.5986 305.749L73.1342 319.114C73.1342 319.114 99.2675 368.125 150.46 368.366H150.831C202.012 368.125 228.146 319.114 228.146 319.114Z" fill="#641DBF"/>
<path d="M229.412 318.529L213.696 305.734L203.827 310.504L150.638 325.802L97.453 310.504L87.584 305.749L71.864 318.529C71.864 318.529 98.427 365.459 150.457 365.677H150.827C202.853 365.474 229.412 318.529 229.412 318.529Z" fill="#8B1FFF"/>
<path d="M215.225 313.885C178.375 273.405 204.527 210.196 204.527 210.196L151.834 206.766V206.611L150.646 206.689L149.457 206.611V206.766L96.7605 210.184C96.7605 210.184 122.912 273.405 86.062 313.874C86.062 313.874 107.07 349.817 149.457 351.128V351.168C149.857 351.168 150.253 351.168 150.646 351.168C151.038 351.168 151.438 351.168 151.834 351.168V351.128C194.217 349.828 215.225 313.885 215.225 313.885Z" fill="#EFCAB6"/>
<path d="M196.106 246.361C197.137 236.009 199.275 225.798 202.483 215.902C202.509 214.984 202.527 214.051 202.527 213.14C202.527 212.106 202.505 211.077 202.472 210.051L151.834 206.766V206.611L150.646 206.689L149.457 206.611V206.766L98.8158 210.051C98.7825 211.077 98.7603 212.106 98.7603 213.14C98.7603 214.065 98.7603 214.991 98.8047 215.902C102.01 225.798 104.145 236.01 105.174 246.361C114.006 267.632 131.056 282.045 150.638 282.045C170.221 282.045 187.274 267.632 196.106 246.361Z" fill="#D6A999"/>
<g style="mix-blend-mode:multiply" opacity="0.5">
<path d="M198.865 229.237C199.112 228.178 199.351 227.155 199.583 226.167C200.275 220.738 201.319 215.36 202.709 210.066L151.834 206.766V206.611L150.646 206.689L149.457 206.611V206.766L98.5973 210.066C99.9873 215.36 101.031 220.738 101.723 226.167C101.97 227.155 102.209 228.178 102.441 229.237C112.014 249.175 130.008 262.61 150.638 262.61C171.269 262.61 189.266 249.175 198.865 229.237Z" fill="#6B7477"/>
</g>
<path d="M80.0328 185.064C90.1049 184.104 96.9743 169.722 95.376 152.939C93.7777 136.156 84.3171 123.329 74.245 124.288C64.1729 125.247 57.3035 139.63 58.9017 156.413C60.5 173.195 69.9607 186.023 80.0328 185.064Z" fill="#EFCAB6"/>
<path d="M79.177 176.076C86.2704 175.4 91.1083 165.272 89.9828 153.453C88.8572 141.634 82.1944 132.6 75.101 133.276C68.0076 133.951 63.1696 144.08 64.2952 155.899C65.4207 167.718 72.0835 176.752 79.177 176.076Z" fill="#D6A999"/>
<path d="M242.399 156.43C243.998 139.647 237.128 125.264 227.056 124.305C216.984 123.346 207.523 136.173 205.925 152.956C204.327 169.739 211.196 184.121 221.268 185.081C231.34 186.04 240.801 173.212 242.399 156.43Z" fill="#EFCAB6"/>
<path d="M237.006 155.916C238.132 144.097 233.294 133.968 226.2 133.293C219.107 132.617 212.444 141.651 211.318 153.47C210.193 165.289 215.031 175.417 222.124 176.093C229.218 176.768 235.88 167.735 237.006 155.916Z" fill="#D6A999"/>
<path d="M221.162 105.558C221.428 103.054 221.561 100.537 221.562 98.0187C221.562 58.976 189.91 27.3249 150.868 27.3249C111.825 27.3249 80.1739 58.976 80.1739 98.0187L79.7184 159.292C79.7184 159.292 78.4371 248.39 150.412 248.768H150.868H151.431C222.835 247.916 221.562 159.292 221.562 159.292L221.162 105.558Z" fill="#F9EAD9"/>
<path d="M221.562 159.292L221.162 105.558C221.428 103.054 221.561 100.537 221.562 98.0187C221.572 87.9978 219.447 78.0896 215.328 68.9545C211.209 59.8194 205.19 51.6671 197.672 45.0409V105.544L211.744 137.795L216.148 147.675L177.035 213.021L169.062 206.611H132.207L124.231 213.021L85.1215 147.675L89.5245 137.813L103.597 105.562V45.4482C96.2109 52.0714 90.3061 60.1787 86.268 69.2401C82.2299 78.3015 80.1496 88.113 80.1629 98.0335L79.7185 159.292C79.7185 159.292 78.4594 247.557 149.427 248.746C149.757 248.746 150.083 248.746 150.412 248.764H150.868C151.438 248.764 152.008 248.764 152.575 248.723C222.813 246.95 221.562 159.292 221.562 159.292Z" fill="#EFCAB6"/>
<path d="M151.968 346.099V346.139C151.523 346.139 151.083 346.139 150.638 346.139C150.194 346.139 149.757 346.139 149.312 346.139V346.099C126.705 345.477 109.544 336.97 97.7678 328.242C108.111 338.418 125.312 350.394 149.446 351.139V351.18C149.846 351.18 150.242 351.18 150.634 351.18C151.027 351.18 151.427 351.18 151.823 351.18V351.139C175.961 350.398 193.162 338.418 203.501 328.242C188.594 339.401 170.583 345.642 151.968 346.099V346.099Z" fill="#D6A999"/>
<path d="M149.916 10.668C149.916 10.668 174.768 -4.47806 194.61 24.7401C194.61 24.7401 171.909 2.46171 147.746 21.7072C123.583 40.9526 149.916 10.668 149.916 10.668Z" fill="#68605E"/>
<path d="M163.788 182.018H150.879H150.401H137.496L127.334 200.334L130.952 206.611L138.155 205.922L150.401 208.329V208.422L150.642 208.374L150.879 208.422V208.329L163.125 205.922L170.328 206.611L173.946 200.334L163.788 182.018Z" fill="#FCF6F0"/>
<path d="M166.329 101.04C161.955 103.47 156.522 104.907 150.638 104.907C144.754 104.907 139.325 103.47 134.951 101.04H124.66C126.445 111.524 137.392 119.593 150.638 119.593C163.884 119.593 174.835 111.524 176.62 101.04H166.329Z" fill="#EFCAB6"/>
<path d="M156.663 198.786L150.42 201.241L144.039 198.786L146.168 176.304H154.53L156.663 198.786Z" fill="#F9EAD9"/>
<path d="M150.864 176.304V201.189L151.001 201.241L157.241 198.786L155.112 176.304H150.864Z" fill="#EFCAB6"/>
<path d="M136.833 104.821C136.833 104.821 147.853 127.711 144.672 165.217L131.956 146.779L100.182 137.321L98.701 137.783H89.3541C89.3541 137.783 86.3916 113.924 96.7605 103.54C107.129 93.1564 136.833 104.821 136.833 104.821Z" fill="#D6A999"/>
<path d="M100.182 137.332L107.989 139.657L112.669 135.132L105.463 123.897L89.3541 137.795H98.7084L100.182 137.332Z" fill="#D6A999"/>
<path d="M144.735 139.313C142.91 117.464 136.833 104.821 136.833 104.821C136.833 104.821 135.877 104.451 134.259 103.896C134.096 106.351 132.974 116.331 125.371 121.141C116.68 126.652 128.975 130.892 128.975 130.892L137.647 126.596L144.735 139.313Z" fill="#B78D80"/>
<path d="M134.407 126.596H137.662C137.662 126.596 140.217 164.846 112.525 164.846C112.525 164.846 93.0796 162.291 100.182 137.347L134.407 126.596Z" fill="#EFCAB6"/>
<path d="M137.662 126.596H134.407L126.682 129.022C124.509 132.284 123.161 136.587 124.309 142.05C127.453 156.977 112.525 164.832 112.525 164.832C140.217 164.846 137.662 126.596 137.662 126.596Z" fill="#D6A999"/>
<path d="M134.407 126.596C134.407 126.596 135.729 144.423 121.146 147.841C106.704 151.23 100.182 137.332 100.182 137.332L134.407 126.596Z" fill="#F9EAD9"/>
<path d="M98.9269 137.728C98.9269 137.728 96.5124 120.538 111.596 115.809C126.256 111.209 134.407 126.596 134.407 126.596L98.9269 137.728Z" fill="#B78D80"/>
<path d="M98.9269 137.728C98.9269 137.728 96.9753 122.004 112.055 117.275C126.716 112.676 134.407 126.596 134.407 126.596L98.9269 137.728Z" fill="#D6A999"/>
<path d="M100.182 137.332C100.182 137.332 105.848 147.364 121.35 142.516C135.17 138.18 134.407 126.592 134.407 126.592L100.182 137.332Z" fill="#FCF6F0"/>
<path d="M101.545 136.906L98.7084 137.795C98.7084 137.795 98.4454 125.226 112.266 120.89C123.997 117.209 130.5 121.152 134.407 126.596L101.545 136.906Z" fill="#68605E"/>
<path d="M120.938 141.16C130.012 138.313 136.044 131.786 134.412 126.581C132.779 121.377 124.099 119.466 115.025 122.313C105.951 125.16 99.9185 131.687 101.551 136.891C103.184 142.096 111.864 144.007 120.938 141.16Z" fill="#D8D0C7"/>
<path d="M120.938 141.16C128.931 138.652 134.087 132.4 132.454 127.195C130.821 121.991 123.018 119.805 115.025 122.313C107.032 124.821 101.876 131.073 103.509 136.277C105.142 141.482 112.945 143.668 120.938 141.16Z" fill="#E5E0DA"/>
<path d="M89.5653 118.808H96.1348C96.1348 118.808 114.577 104.821 136.833 104.821L135.351 101.007C135.351 101.007 117.335 92.9527 101.016 99.5259C101.012 99.5222 90.2023 105.458 89.5653 118.808Z" fill="#68605E"/>
<path d="M122.45 121.201C119.929 121.177 117.421 121.552 115.017 122.312C112.217 123.179 109.602 124.56 107.307 126.385C106.568 128.254 106.38 130.296 106.765 132.269C107.15 134.242 108.092 136.063 109.48 137.518C110.867 138.972 112.643 139.998 114.596 140.475C116.548 140.952 118.597 140.859 120.499 140.208C122.4 139.557 124.076 138.374 125.327 136.801C126.577 135.227 127.351 133.328 127.556 131.329C127.762 129.329 127.39 127.312 126.485 125.517C125.58 123.723 124.179 122.225 122.45 121.201V121.201Z" fill="#6A6B5F"/>
<path d="M117.158 133.691C119.002 133.691 120.498 132.196 120.498 130.351C120.498 128.506 119.002 127.011 117.158 127.011C115.313 127.011 113.817 128.506 113.817 130.351C113.817 132.196 115.313 133.691 117.158 133.691Z" fill="#51514F"/>
<path d="M117.158 129.374C118.46 129.374 119.517 128.317 119.517 127.015C119.517 125.712 118.46 124.656 117.158 124.656C115.855 124.656 114.799 125.712 114.799 127.015C114.799 128.317 115.855 129.374 117.158 129.374Z" fill="#E5E0DA"/>
<g style="mix-blend-mode:multiply">
<path d="M115.017 122.326C106.892 124.874 101.39 131.051 101.545 136.906C101.759 137.23 101.993 137.54 102.245 137.835C102.863 136.224 110.099 118.949 134.407 126.596C131.189 121.704 123.146 119.779 115.017 122.326Z" fill="#CECCC8"/>
</g>
<path d="M164.447 104.821C164.447 104.821 153.427 127.711 156.604 165.217L169.324 146.779L201.087 137.332L202.568 137.795H211.922C211.922 137.795 214.885 113.935 204.516 103.551C194.147 93.1675 164.447 104.821 164.447 104.821Z" fill="#D6A999"/>
<path d="M201.098 137.332L193.291 139.657L188.611 135.132L195.817 123.897L211.926 137.795H202.575L201.098 137.332Z" fill="#D6A999"/>
<path d="M156.545 139.313C158.37 117.464 164.447 104.821 164.447 104.821C164.447 104.821 165.399 104.451 167.017 103.896C167.18 106.351 168.306 116.331 175.905 121.141C184.593 126.652 172.302 130.892 172.302 130.892L163.625 126.596L156.545 139.313Z" fill="#B78D80"/>
<path d="M166.873 126.596H163.614C163.614 126.596 161.063 164.846 188.755 164.846C188.755 164.846 208.197 162.291 201.098 137.347L166.873 126.596Z" fill="#EFCAB6"/>
<path d="M163.614 126.596H166.873L174.598 129.022C176.772 132.284 178.12 136.587 176.972 142.05C173.828 156.977 188.755 164.846 188.755 164.846C161.063 164.846 163.614 126.596 163.614 126.596Z" fill="#D6A999"/>
<path d="M166.873 126.596C166.873 126.596 165.551 144.423 180.134 147.841C194.576 151.23 201.098 137.332 201.098 137.332L166.873 126.596Z" fill="#F9EAD9"/>
<path d="M202.353 137.728C202.353 137.728 204.764 120.538 189.685 115.809C175.024 111.209 166.873 126.596 166.873 126.596L202.353 137.728Z" fill="#B78D80"/>
<path d="M202.353 137.728C202.353 137.728 204.305 122.004 189.225 117.275C174.564 112.676 166.873 126.596 166.873 126.596L202.353 137.728Z" fill="#D6A999"/>
<path d="M201.087 137.332C201.087 137.332 195.421 147.364 179.919 142.516C166.095 138.18 166.862 126.592 166.862 126.592L201.087 137.332Z" fill="#FCF6F0"/>
<path d="M199.735 136.906L202.568 137.813C202.568 137.813 202.831 125.244 189.007 120.908C177.279 117.227 170.776 121.171 166.869 126.615L199.735 136.906Z" fill="#68605E"/>
<path d="M199.747 136.92C201.38 131.716 195.348 125.189 186.274 122.342C177.2 119.495 168.52 121.406 166.887 126.61C165.254 131.815 171.286 138.342 180.36 141.189C189.435 144.036 198.114 142.125 199.747 136.92Z" fill="#D8D0C7"/>
<path d="M197.79 136.306C199.423 131.102 194.267 124.85 186.274 122.342C178.281 119.834 170.478 122.02 168.845 127.224C167.212 132.429 172.367 138.681 180.36 141.189C188.353 143.697 196.157 141.511 197.79 136.306Z" fill="#E5E0DA"/>
<path d="M211.715 118.808H205.16C205.16 118.808 186.722 104.821 164.466 104.821L165.947 101.007C165.947 101.007 183.963 92.9527 200.283 99.5259C200.268 99.5222 211.085 105.458 211.715 118.808Z" fill="#68605E"/>
<path d="M178.831 121.201C181.35 121.177 183.857 121.552 186.259 122.312C189.061 123.178 191.677 124.56 193.973 126.385C194.713 128.255 194.902 130.298 194.518 132.272C194.133 134.246 193.191 136.069 191.803 137.524C190.415 138.979 188.638 140.006 186.685 140.484C184.731 140.961 182.681 140.868 180.778 140.217C178.876 139.565 177.199 138.382 175.948 136.808C174.697 135.233 173.923 133.333 173.718 131.332C173.513 129.331 173.886 127.314 174.792 125.518C175.698 123.723 177.099 122.224 178.831 121.201V121.201Z" fill="#6A6B5F"/>
<path d="M184.122 133.691C185.967 133.691 187.463 132.196 187.463 130.351C187.463 128.506 185.967 127.011 184.122 127.011C182.277 127.011 180.782 128.506 180.782 130.351C180.782 132.196 182.277 133.691 184.122 133.691Z" fill="#51514F"/>
<path d="M184.122 129.374C185.425 129.374 186.481 128.317 186.481 127.015C186.481 125.712 185.425 124.656 184.122 124.656C182.82 124.656 181.763 125.712 181.763 127.015C181.763 128.317 182.82 129.374 184.122 129.374Z" fill="#E5E0DA"/>
<g style="mix-blend-mode:multiply">
<path d="M186.274 122.326C194.402 124.874 199.905 131.051 199.75 136.906C199.535 137.23 199.3 137.54 199.046 137.835C198.432 136.224 191.196 118.949 166.888 126.596C170.087 121.704 178.127 119.779 186.274 122.326Z" fill="#CECCC8"/>
</g>
<path d="M135.107 206.611C136.855 213.369 143.143 218.372 150.638 218.372C158.133 218.372 164.425 213.369 166.192 206.611H135.107Z" fill="#D6A999"/>
<path d="M150.642 238.536C160.025 238.536 167.632 235.237 167.632 231.167C167.632 227.097 160.025 223.797 150.642 223.797C141.258 223.797 133.652 227.097 133.652 231.167C133.652 235.237 141.258 238.536 150.642 238.536Z" fill="#D6A999"/>
<path d="M150.642 236.396C160.465 236.396 168.428 233.438 168.428 229.789C168.428 226.14 160.465 223.183 150.642 223.183C140.819 223.183 132.855 226.14 132.855 229.789C132.855 233.438 140.819 236.396 150.642 236.396Z" fill="#F9EAD9"/>
<path d="M150.638 223.186C160.026 223.186 167.71 225.886 168.373 229.311C168.405 229.053 168.422 228.794 168.425 228.534C168.425 222.638 160.463 217.861 150.649 217.861C140.836 217.861 132.874 222.638 132.874 228.534C132.877 228.794 132.894 229.053 132.926 229.311C133.57 225.886 141.254 223.186 150.638 223.186Z" fill="#D6A999"/>
<path d="M164.221 177.567L171.498 192.639L169.365 180.696L164.221 177.567Z" fill="#EFCAB6"/>
<path d="M137.058 177.567L129.782 192.639L131.918 180.696L137.058 177.567Z" fill="#EFCAB6"/>
<path d="M150.642 164.824C151.566 164.824 152.316 158.759 152.316 151.278C152.316 143.796 151.566 137.732 150.642 137.732C149.717 137.732 148.968 143.796 148.968 151.278C148.968 158.759 149.717 164.824 150.642 164.824Z" fill="#FCF6F0"/>
<path d="M87.5544 66.4713C87.5544 66.4713 82.9995 41.2896 101.512 26.4139L103.323 30.6652C103.323 30.6652 106.655 7.90538 125.779 1.83586C144.902 -4.23366 154.608 6.69074 154.608 6.69074L148.246 11.242C148.246 11.242 175.557 -0.60824 192.854 29.7579C192.854 29.7579 202.564 25.8103 209.848 37.9493L206.208 38.5678L215.614 46.4592L212.567 51.603C212.567 51.603 217.751 65.8639 218.347 77.0809L211.974 74.3479L202.024 50.0921L190.67 40.5675C190.67 40.5675 172.22 50.0847 153.708 38.2493C135.196 26.4139 117.539 36.9346 117.539 36.9346L106.333 43.4448L87.5544 66.4713Z" fill="#68605E"/>
<path d="M150.642 97.3262C167.22 97.3262 180.66 89.0065 180.66 78.7436C180.66 68.4807 167.22 60.161 150.642 60.161C134.063 60.161 120.624 68.4807 120.624 78.7436C120.624 89.0065 134.063 97.3262 150.642 97.3262Z" fill="#FCF6F0"/>
<path d="M150.771 27.3249C111.725 27.3249 80.0739 58.976 80.0739 98.0187L79.8147 133.28H82.618L90.7835 76.3106C90.7835 76.3106 91.6427 50.9438 113.14 40.1972L150.112 41.4562V41.4859H150.542H150.971V41.4562L187.944 40.1972C209.422 50.9364 210.3 76.3106 210.3 76.3106L218.469 133.28H221.273L221.084 105.558C221.34 103.053 221.464 100.537 221.454 98.0187C221.454 58.976 189.814 27.3249 150.771 27.3249Z" fill="#68605E"/>
<g style="mix-blend-mode:multiply" opacity="0.5">
<path d="M151.431 248.757C222.835 247.916 221.562 159.292 221.562 159.292L221.369 133.221L218.58 133.288V164.824L182.06 218.172L174.653 215.347V200.497L160.415 183.584H143.317L129.086 200.497V215.332L121.679 218.157L84.4215 164.832L82.9402 133.295L79.9406 133.147L79.7184 159.292C79.7184 159.292 78.4371 248.39 150.412 248.768H150.868L151.431 248.757ZM166.71 206.611H170.865V217.561L165.021 221.39L160.059 216.132C160.059 216.132 165.866 212.373 166.71 206.611ZM138.688 221.39L132.844 217.561V206.611H136.999C137.844 212.373 143.665 216.132 143.665 216.132L138.688 221.39Z" fill="#6B7477"/>
</g>
<path d="M150.642 191.083C157.962 191.083 163.896 186.327 163.896 180.459C163.896 174.591 157.962 169.835 150.642 169.835C143.322 169.835 137.388 174.591 137.388 180.459C137.388 186.327 143.322 191.083 150.642 191.083Z" fill="#EFCAB6"/>
<path d="M150.638 174.741C143.972 174.741 138.488 177.904 137.544 182.018C138.488 187.143 143.984 191.083 150.638 191.083C157.293 191.083 162.792 187.143 163.736 182.018C162.792 177.904 157.296 174.741 150.638 174.741Z" fill="#D6A999"/>
<path d="M147.973 186.989C148.436 185.961 147.116 184.365 145.025 183.424C142.934 182.483 140.864 182.554 140.402 183.581C139.939 184.609 141.259 186.205 143.35 187.146C145.441 188.087 147.511 188.016 147.973 186.989Z" fill="#706663"/>
<path d="M157.923 187.155C160.014 186.214 161.334 184.618 160.871 183.591C160.409 182.563 158.339 182.493 156.248 183.434C154.157 184.374 152.837 185.97 153.3 186.998C153.762 188.026 155.832 188.096 157.923 187.155Z" fill="#706663"/>
<path d="M150.642 191.083C155.309 191.083 159.092 185.851 159.092 179.396C159.092 172.941 155.309 167.709 150.642 167.709C145.975 167.709 142.191 172.941 142.191 179.396C142.191 185.851 145.975 191.083 150.642 191.083Z" fill="#EFCAB6"/>
<path d="M142.206 179.711C142.328 186.006 146.054 191.083 150.642 191.083C155.23 191.083 158.959 186.021 159.081 179.711H142.206Z" fill="#D6A999"/>
<path d="M150.642 186.066C155.309 186.066 159.092 183.08 159.092 179.396C159.092 175.713 155.309 172.727 150.642 172.727C145.975 172.727 142.191 175.713 142.191 179.396C142.191 183.08 145.975 186.066 150.642 186.066Z" fill="#F9EAD9"/>
<path d="M150.642 180.378C153.303 180.378 155.46 179.016 155.46 177.337C155.46 175.658 153.303 174.297 150.642 174.297C147.981 174.297 145.824 175.658 145.824 177.337C145.824 179.016 147.981 180.378 150.642 180.378Z" fill="#FCF6F0"/>
<path d="M159.407 199.412C155.582 199.412 152.271 200.893 150.638 203.056C149.009 200.897 145.698 199.412 141.873 199.412C136.607 199.412 132.319 202.215 132.048 205.737H136.696C138.262 209.07 143.91 211.518 150.638 211.518C157.367 211.518 163.014 209.059 164.584 205.737H169.239C168.962 202.215 164.673 199.412 159.407 199.412Z" fill="#F9EAD9"/>
<path d="M169.239 206.611C168.969 203.393 164.681 200.838 159.415 200.838C155.589 200.838 152.279 202.189 150.646 204.17C149.016 202.197 145.706 200.838 141.88 200.838C136.614 200.838 132.326 203.393 132.056 206.611H169.239Z" fill="#E2A696"/>
<path d="M159.407 202.989C155.582 202.989 152.271 204.341 150.638 206.322C149.009 204.348 145.698 202.989 141.873 202.989C137.862 202.989 134.426 204.47 132.893 206.6H168.388C166.851 204.47 163.418 202.989 159.407 202.989Z" fill="#B77165"/>
<path d="M136.696 206.611C138.262 209.655 143.909 211.877 150.638 211.877C157.367 211.877 163.014 209.633 164.584 206.6L136.696 206.611Z" fill="#CC8172"/>
<path d="M162.436 206.611H138.844C141.436 208.422 145.75 209.61 150.638 209.61C155.526 209.61 159.837 208.422 162.436 206.611Z" fill="#E2A696"/>
<path d="M87.6877 148.312L91.0613 140.279L97.4827 139.798L87.6877 148.312Z" fill="#FCF6F0"/>
<path d="M104.389 164.691C104.389 164.691 118.831 175.934 133.615 156.018L142.45 168.238L130.404 179.963C130.404 179.963 115.31 191.206 100.534 168.883L104.389 164.691Z" fill="#FCF6F0"/>
<path d="M213.596 148.312L210.222 140.279L203.797 139.798L213.596 148.312Z" fill="#FCF6F0"/>
<path d="M196.891 164.691C196.891 164.691 182.448 175.934 167.662 156.018L158.83 168.238L170.876 179.963C170.876 179.963 185.97 191.206 200.746 168.883L196.891 164.691Z" fill="#FCF6F0"/>
<path d="M90.1948 65.901C90.1948 65.901 88.4062 44.6373 100.727 33.3129L103.112 38.6788C103.112 38.6788 112.851 1.71366 148.62 8.07573L135.107 24.5697C135.107 24.5697 150.409 12.2455 166.106 15.0303C181.804 17.8151 189.955 32.5167 189.955 32.5167L182.6 31.1243L193.71 36.8902C193.71 36.8902 200.913 28.6728 209.83 37.9456L201.461 40.8637L208.415 48.6145L197.654 45.0409L190.67 40.5675C190.67 40.5675 168.21 52.3214 150.523 41.7895L114.232 40.8637C114.232 40.8637 98.4344 44.4003 92.3834 66.6971L90.1948 65.901Z" fill="#494646"/>
<g style="mix-blend-mode:multiply" opacity="0.75">
<path d="M284.982 363.767L228.179 320.547C229.001 319.273 229.412 318.543 229.412 318.543L213.696 305.749L213.044 306.064L212.674 305.749L209.83 307.204C196.154 287.985 194.276 265.088 196.095 246.365C196.677 240.443 197.629 234.563 198.946 228.76C198.983 228.6 199.017 228.441 199.054 228.286C199.091 228.13 199.124 227.978 199.161 227.823C210.408 214.891 216.01 198.216 218.788 184.551C219.583 184.814 220.406 184.989 221.239 185.073C231.312 186.032 240.77 173.204 242.37 156.422C243.969 139.639 237.096 125.259 227.024 124.3C225.072 124.129 223.108 124.446 221.31 125.222L221.162 105.555C221.428 103.05 221.561 100.533 221.561 98.015C221.561 97.3817 221.561 96.7448 221.536 96.1152C221.536 95.9079 221.536 95.7042 221.513 95.5005C221.513 95.0746 221.484 94.6488 221.462 94.2229C221.462 93.9822 221.432 93.7415 221.417 93.4823C221.391 93.112 221.365 92.712 221.336 92.3306C221.336 92.0751 221.291 91.8195 221.269 91.5677C221.236 91.1974 221.202 90.8271 221.162 90.4568C221.136 90.1976 221.106 89.942 221.073 89.6828C221.032 89.3125 220.988 88.9607 220.939 88.6015C220.906 88.3423 220.869 88.0867 220.832 87.8312C220.78 87.4609 220.728 87.1128 220.669 86.7536C220.628 86.5018 220.588 86.25 220.543 86.013C220.484 85.6426 220.417 85.2723 220.351 84.9242C220.306 84.6835 220.258 84.4391 220.21 84.1836C220.136 83.8133 220.062 83.4429 219.98 83.0726C219.932 82.843 219.884 82.6134 219.832 82.3875C219.743 82.0172 219.654 81.6173 219.562 81.2358C219.51 81.0248 219.462 80.8174 219.406 80.61C219.303 80.1953 219.191 79.7842 219.08 79.3694C219.032 79.1991 218.988 79.025 218.94 78.8547C218.806 78.377 218.666 77.8993 218.521 77.4216C218.488 77.3216 218.462 77.2179 218.429 77.1179L218.329 76.792C217.655 65.638 212.566 51.603 212.566 51.603L215.599 46.4444L206.749 39.0381L209.834 37.9604C202.568 25.8066 192.854 29.7542 192.854 29.7542C189.647 24.1253 186.1 19.9555 182.441 16.8856C186.905 18.8102 191.018 21.4646 194.61 24.7401C175.49 -3.41525 151.723 9.62366 150.02 10.6087C148.883 10.979 148.246 11.242 148.246 11.242L154.619 6.69074C154.619 6.69074 144.909 -4.23366 125.79 1.83586C106.67 7.90538 103.323 30.6652 103.323 30.6652L101.501 26.4139C83.6364 40.7897 87.2692 64.753 87.5395 66.3824C82.6167 76.2009 80.06 87.0352 80.0739 98.0187L79.8739 125.185C78.0953 124.431 76.1584 124.126 74.234 124.296C64.165 125.256 57.2956 139.635 58.8917 156.418C60.4878 173.201 69.9494 186.043 80.0221 185.069C80.8547 184.986 81.6756 184.811 82.4699 184.547C85.2584 198.212 90.8613 214.891 102.097 227.826C102.13 227.971 102.167 228.119 102.2 228.267L102.312 228.763C103.628 234.564 104.581 240.441 105.163 246.361V246.361C106.97 265.084 105.107 287.981 91.4316 307.2L88.5875 305.745L88.2172 306.06L87.5655 305.745L71.864 318.529C71.864 318.529 72.2787 319.269 73.1008 320.532L16.2977 363.767L0.00366211 388.004H301.28L284.982 363.767Z" fill="#F222FF"/>
</g>
</svg>
