<?xml version="1.0" encoding="utf-8"?>
<!-- Generator: Adobe Illustrator 15.0.0, SVG Export Plug-In . SVG Version: 6.00 Build 0)  -->
<!DOCTYPE svg PUBLIC "-//W3C//DTD SVG 1.1//EN" "http://www.w3.org/Graphics/SVG/1.1/DTD/svg11.dtd">
<svg version="1.1" id="Camada_1" xmlns="http://www.w3.org/2000/svg" xmlns:xlink="http://www.w3.org/1999/xlink" x="0px" y="0px"
	 width="256px" height="256px" viewBox="0 0 256 256" enable-background="new 0 0 256 256" xml:space="preserve">
<g>
	<path fill="#FFFFFF" d="M169.928,54.465c0,36.386-29.496,50.829-43.107,37.218c-12.552-12.552-4.632-41.545,16.043-41.545
		c24.504,0,13.1,64.392-11.264,64.392c-15.089,0-13.76-22.891-5.555-22.891c3.93,0,8.055,3.444,8.055,3.922
		c0,0.477-0.494,0.633-1.145,0.633c-2.193,0-2.691,12.759,2.32,12.759c13.861,0,25.795-44.09,10.367-44.09
		c-9.373,0-13.52,14.877-5.988,22.407c9.584,9.584,27.395-8.505,27.395-32.485"/>
	<path fill="#FFFFFF" d="M114.7,82.055c0,0,4.582,1.025,4.582,4.502c0,4.341-4.178,8.153-7.909,8.153
		c-1.347,0-2.764-3.304-3.583-4.122c-1.376-1.376-0.231-2.412,0.277-1.904c2.04,2.04,5.884-3.383,5.884-5.987
		c0-1.994,6.005,7.03,0.304,1.33c-5.7-5.701-14.752,10.768-8.987,16.533c2.039,2.039,4.453,1.781-1.018,1.781
		s-10.174-2.289-10.174-9.157s5.108-16.395,14.273-16.395C113.735,76.789,114.7,82.055,114.7,82.055"/>
	<path fill="#FFFFFF" d="M108.917,99.347c2.147,0,3.481,4.773,3.481,5.765s-0.252,0.549-1.086,0.549
		c-3.247,0-8.853,6.28-8.853,12.567c0,6.904,5.231,7.523,9.072,3.682c4.537-4.536,9.179-14.494,9.179-19.559
		c0-3.047,2.148-2.229,2.148,0c0,6.058-6.041,28.132-21.26,28.132c-16.349,0-14.254-18.14-7.547-24.846
		C100.367,99.321,105.934,99.347,108.917,99.347"/>
	<path fill="#FFFFFF" d="M72.934,80.062c2.48,0,16.537,1.417,16.537,9.567s-13.177,64.678-10.696,64.678
		c2.48,0-5.368-0.717-8.203-3.553c-2.834-2.834,2.661-67.318,1.772-68.207C71.455,81.659,70.453,80.062,72.934,80.062"/>
	<path fill="#FFFFFF" d="M195.744,123.792c0,0-3.242-6.011-9.143-6.011c-7.93,0-12.24,21.875-12.24,30.903
		c0,10.852,9.574,12.408,14.561,7.42c6.602-6.601,10.975-36.44,10.975-36.44l-0.961-2.896c0,0-7.982,38.198-12.191,33.989
		c-3.672-3.672,3.576-30.229,8.451-25.355C196.969,127.175,195.744,123.792,195.744,123.792"/>
	<path fill="#FFFFFF" d="M148.51,112.666c-15.805,0-64.647,40.582-70.244,40.582c-3.076,0-12.149-0.687-14.464-3.001
		c-0.989-0.989-1.946-2.115-1.946,0.084c0,2.2,8.08,10.15,15.057,10.15c12.857,0,68.037-28.847,74.242-22.642
		c1.672,1.672,0.924,4.892,2.908,2.908C156.045,138.765,161.52,112.666,148.51,112.666"/>
	<path fill="#FFFFFF" d="M137.258,152.887c0,0-3.242-6.011-9.144-6.011c-7.929,0-12.24,21.875-12.24,30.903
		c0,10.852,9.925,12.408,14.913,7.419c6.6-6.6,10.621-36.44,10.621-36.44l-0.256-2.896c0,0-8.303,38.578-12.511,34.369
		c-3.672-3.672,3.193-30.609,8.066-25.735C138.48,156.27,137.258,152.887,137.258,152.887"/>
	<path fill="#FFFFFF" d="M136.771,178.677c2.359,2.36,8.018,2.389,12.826-2.421c4.971-4.97,8.58-16.155,8.58-26.82l-2.037,4.736
		c0,4.58-6.217,23.05-10.055,19.213c-3.441-3.442,6.256-20.807,6.256-24.762c0-4.544-9.467-6.347-11.336-6.347
		c-0.998,0-1.043,0.896-0.275,1.663C142.785,145.995,129.789,171.695,136.771,178.677"/>
	<path fill="#FFFFFF" d="M157.566,165.547c2.359,2.359,6.963,3.09,11.771-1.719c4.971-4.97,8.711-19.966,8.711-30.631l-1.324-0.629
		c0,1.61-6.006,31.522-9.844,27.686c-3.441-3.441,6.254-23.267,6.254-27.221c0-4.544-9.467-6.347-11.334-6.347
		c-0.998,0-1.043,0.896-0.277,1.663C163.58,130.405,150.584,158.564,157.566,165.547"/>
	<path fill="#FFFFFF" d="M80.798,206.32c0-6.786,16.542-52.054,22.703-52.054c6.069,0,10.707,6.089,10.707,11.548
		c0,11.034-15.879,52.394-9.954,58.319c4.172,4.173,51.23-60.536,76.285-60.536c13,0,20.58,10.507,20.58,20.658
		c0,0.327-1.307-1.535-1.006-1.535c24.213,0-2.912,60.187-33.346,60.187c-9.875,0-11.643-9.809-11.643-14.034
		c0-2.995,1.451,0.34,0.262,0.34c-2.1,0-9.596-1.93-9.596-10.928c0-8.999,14.107-26.917,26.908-26.917
		c12.338,0,9.957,16.938,8.775,16.938c-1.18,0-0.211-3.688-3.098-3.688c-4.426,0-27.176,19.34-21.467,25.049
		c5.709,5.708-15.857-16.846-3.17-4.159s56.004-32.719,42.359-46.364c-2.756-2.755-0.086-1.514,1.805,0.865
		c1.523,1.913,2.189,4.905,1.807,4.523c-2.186-2.186-6.523-3.95-14.094-3.95c-31.584,0-64.854,52.068-78.11,52.068
		c-8.651,0-8.024-6.966-8.024-6.966l7.278,1.436c0,0-17.6,5.424-17.6-9.06c0-19.347,12.938-51.065,11.758-52.246
		c-2.564-2.563-20.824,39.749-20.824,46.683C80.096,219.43,80.798,209.678,80.798,206.32"/>
	<path fill="#FFFFFF" d="M167.051,54.784c0-10.185-5.359-15.309-15.637-15.309c-20.35,0-42.413,35.98-63.022,35.98
		c-10.556,0-16.874-11.514-16.874-19.758c0-0.266,1.061,1.247,0.816,1.247c-18.763,0-2.583-43.853,25.295-43.853
		c8.328,0,11.237,7.082,11.237,9.89c0,2.432-1.178-0.277-0.212-0.277c1.705,0,7.792,1.567,7.792,8.875
		c0,7.307-11.457,18.344-21.851,18.344c-10.019,0-10.154-14.167-5.541-14.167c0.306,0,0.897,0.082,0.162,0.817
		c-0.732,0.732-0.616,1.838,0.979,1.838c3.594,0,21.855-11.438,17.22-16.074s12.876,13.679,2.575,3.377S64.514,48.77,75.595,59.85
		c2.237,2.237,0.069,1.229-1.466-0.701c-1.236-1.554-1.776-3.983-1.467-3.674c1.775,1.775,5.298,3.207,11.445,3.207
		c25.647,0,39.735-26.511,62.899-26.511c14.549,0,22.922,10.021,22.922,22.294"/>
	<path fill="#FFFFFF" d="M79.75,216.202c-2.51,0-11.396,5.069-11.396-2.291c0-8.554,8.412-36.928,7.231-38.107
		c-2.564-2.564-19.153,47.733-19.153,54.666c0,6.934-0.545-1.007-0.545-4.363c0-6.787,14.977-62.029,23.051-62.029
		c6.07,0,8.836,5.552,8.836,10.354c0,11.034-7.342,26.836-7.342,37.729C80.433,212.833,81.219,216.202,79.75,216.202"/>
	<path fill="#FFFFFF" d="M52.636,165.972c1.181,1.18-8.322,56.604-8.322,65.156c0,7.361,9.386,4.185,11.896,4.185
		c1.468,0,0.683-3.368,0.683-4.042c0-10.894,9.45-47.726,9.45-58.76C66.342,166.169,56.358,162.249,52.636,165.972
		C52.636,165.972,51.552,164.888,52.636,165.972"/>
	<path fill="#FFFFFF" d="M72.934,80.062c-14.575,0-50.291,29.202-50.291,47.303c0,12.383,13.179,17.199,21.594,17.199
		c3.32,0,2.205-1.058,1.429-1.832c-3.37-3.371-4.759-8.565-4.759-12.563c0-16.288,20.949-45.728,32.227-45.728
		C79.644,84.441,80.713,80.062,72.934,80.062"/>
	<path fill="#FFFFFF" d="M55.887,165.199c-14.575,0-49.697,27.876-49.697,45.978c0,12.382,13.178,17.199,21.594,17.199
		c3.319,0,2.204-1.058,1.429-1.833c-3.37-3.37-4.759-8.563-4.759-12.561c0-16.289,20.356-44.403,31.634-44.403
		C62.598,169.579,63.667,165.199,55.887,165.199"/>
	<path fill="#FFFFFF" d="M212.578,165.639c-17.572,0-1.75-38.703-1.75-46.11c0-4.544-10.17-6.346-12.037-6.346
		c-0.998,0-1.045,0.895-0.277,1.662c1.338,1.337-0.727,7.405-2.334,15.36l-1.598,14.037c0-4.932,0.732-9.757,1.598-14.037
		l0.002-0.005c0,0-2.994,7.839-2.994,19.771c0,14.87,10.451,17.417,19.564,17.417c0.5,0-2.16-0.871-1.289,0
		c9.43,9.428,38.348-18.242,38.348-54.94c0-12.382-16.574-16.559-24.988-16.559c-3.32,0-4.715,1.351-1.264,1.351
		c4.766,0,6.752,7.054,6.752,11.051C230.311,134.139,223.857,165.639,212.578,165.639"/>
	<path fill="#FFFFFF" d="M164.846,93.668c-4.568,4.568-5.246,24.474-2.52,27.2c5.111,5.112,10.957,3.416,12.652,1.721
		c1.256-1.256,8.613-11.996,8.613-22.723C183.592,86.865,171.092,87.423,164.846,93.668"/>
</g>
</svg>
