<svg width="327" height="82" viewBox="0 0 327 82" fill="none" xmlns="http://www.w3.org/2000/svg">
<g clip-path="url(#clip0)">
<path fill-rule="evenodd" clip-rule="evenodd" d="M196.24 34.9042C196.287 34.1832 196.311 33.4559 196.311 32.723C196.311 32.358 196.305 31.9944 196.294 31.6323H130.892C130.88 31.9944 130.874 32.358 130.874 32.723C130.874 33.4559 130.898 34.1832 130.946 34.9042H196.24ZM196.15 35.9948H131.036C131.146 37.1026 131.311 38.1942 131.529 39.2667H195.657C195.875 38.1942 196.04 37.1026 196.15 35.9948ZM195.416 40.3573H131.77C132.036 41.4711 132.359 42.5628 132.736 43.6292H194.45C194.827 42.5628 195.15 41.4711 195.416 40.3573ZM194.042 44.7198H133.144C133.586 45.8421 134.089 46.934 134.648 47.9916H192.538C193.097 46.934 193.6 45.8421 194.042 44.7198ZM191.934 49.0822H135.251C135.908 50.2178 136.631 51.3102 137.416 52.3541H189.77C190.554 51.3102 191.277 50.2178 191.934 49.0822ZM188.914 53.4447H138.271C139.222 54.6045 140.25 55.6978 141.348 56.7166H185.837C186.936 55.6978 187.964 54.6045 188.914 53.4447ZM184.601 57.8072H142.585C144.041 59.0276 145.604 60.1237 147.259 61.0791H179.927C181.582 60.1237 183.145 59.0276 184.601 57.8072ZM177.872 62.1697H149.314C153.629 64.2658 158.474 65.4415 163.593 65.4415C168.712 65.4415 173.557 64.2658 177.872 62.1697ZM130.946 30.5417H196.24C195.117 13.4887 180.93 0.00439453 163.593 0.00439453C146.256 0.00439453 132.068 13.4887 130.946 30.5417Z" fill="#FED416"/>
</g>
<path fill-rule="evenodd" clip-rule="evenodd" d="M200.488 81.2102H0L17.529 63.6812L23.8642 70.0164L46.6329 47.2478L56.9797 57.5946L67.9589 46.6154L72.2254 50.8819L93.3886 29.7188L108.355 44.6856L114.558 38.4833L131.229 55.1549L135.85 50.5345L147.115 61.7997L157.285 51.63L176.148 70.4928L182.959 63.6812L200.488 81.2102Z" fill="#5800AF"/>
<path fill-rule="evenodd" clip-rule="evenodd" d="M126.512 81.2102H327L309.471 63.6812L302.659 70.4928L283.797 51.63L273.627 61.7997L262.362 50.5344L257.741 55.1549L241.07 38.4832L234.867 44.6856L219.9 29.7188L198.737 50.8819L194.471 46.6154L183.491 57.5946L173.145 47.2478L150.376 70.0164L144.041 63.6812L126.512 81.2102Z" fill="#5800AF"/>
<defs>
<clipPath id="clip0">
<rect width="65.4371" height="65.4415" fill="white" transform="translate(130.874)"/>
</clipPath>
</defs>
</svg>
