<svg width="327" height="81" viewBox="0 0 327 81" fill="none" xmlns="http://www.w3.org/2000/svg">
<g clip-path="url(#clip0)">
<path fill-rule="evenodd" clip-rule="evenodd" d="M196.24 34.9044C196.287 34.1835 196.311 33.4562 196.311 32.7232C196.311 32.3582 196.305 31.9947 196.294 31.6326H130.892C130.88 31.9947 130.874 32.3582 130.874 32.7232C130.874 33.4562 130.898 34.1835 130.946 34.9044H196.24ZM196.15 35.9951H131.036C131.146 37.1029 131.311 38.1944 131.529 39.2669H195.657C195.875 38.1944 196.04 37.1029 196.15 35.9951ZM195.416 40.3575H131.77C132.036 41.4714 132.359 42.5631 132.736 43.6294H194.45C194.827 42.5631 195.15 41.4714 195.416 40.3575ZM194.042 44.72H133.144C133.586 45.8423 134.089 46.9343 134.648 47.9919H192.538C193.097 46.9343 193.6 45.8423 194.042 44.72ZM191.934 49.0825H135.251C135.908 50.218 136.631 51.3104 137.416 52.3543H189.77C190.554 51.3104 191.277 50.218 191.934 49.0825ZM188.914 53.445H138.271C139.222 54.6047 140.25 55.698 141.348 56.7168H185.837C186.936 55.698 187.964 54.6047 188.914 53.445ZM184.601 57.8074H142.585C144.041 59.0279 145.604 60.1239 147.259 61.0793H179.927C181.582 60.1239 183.145 59.0279 184.601 57.8074ZM177.872 62.1699H149.314C153.629 64.2661 158.474 65.4418 163.593 65.4418C168.712 65.4418 173.557 64.2661 177.872 62.1699ZM130.946 30.542H196.24C195.117 13.489 180.93 0.00463867 163.593 0.00463867C146.256 0.00463867 132.068 13.489 130.946 30.542Z" fill="#FE921E"/>
</g>
<path fill-rule="evenodd" clip-rule="evenodd" d="M200.488 81.21H0L17.529 63.681L23.8642 70.0162L46.6329 47.2475L56.9797 57.5944L67.9589 46.6152L72.2254 50.8817L93.3886 29.7185L108.355 44.6854L114.558 38.483L131.229 55.1547L135.85 50.5342L147.115 61.7994L157.285 51.6298L176.148 70.4926L182.959 63.681L200.488 81.21Z" fill="#3D0079"/>
<path fill-rule="evenodd" clip-rule="evenodd" d="M126.512 81.21H327L309.471 63.681L302.659 70.4925L283.797 51.6298L273.627 61.7994L262.362 50.5342L257.741 55.1547L241.07 38.483L234.867 44.6854L219.9 29.7185L198.737 50.8817L194.471 46.6152L183.492 57.5944L173.145 47.2475L150.376 70.0162L144.041 63.681L126.512 81.21Z" fill="#3D0079"/>
<defs>
<clipPath id="clip0">
<rect width="65.4371" height="65.4415" fill="white" transform="translate(130.874)"/>
</clipPath>
</defs>
</svg>
